<svg width="220" height="100" viewBox="0 0 220 100" fill="none" xmlns="http://www.w3.org/2000/svg">
<rect width="220" height="100" rx="10" fill="white"/>
<mask id="mask0_5_100" style="mask-type:alpha" maskUnits="userSpaceOnUse" x="13" y="13" width="74" height="74">
<rect x="13" y="13" width="74" height="74" fill="#D9D9D9"/>
</mask>
<g mask="url(#mask0_5_100)">
<path d="M40.1771 72.6726C33.8594 72.6726 28.495 70.4742 24.084 66.0773C19.6729 61.6803 17.4674 56.3258 17.4674 50.0137C17.4674 43.7016 19.6688 38.3353 24.0717 33.9147C28.4746 29.4941 33.8363 27.2838 40.157 27.2838C46.4777 27.2838 51.8338 29.492 56.2253 33.9083C60.6169 38.3246 62.8126 43.6889 62.8126 50.001C62.8126 56.3131 60.6165 61.6697 56.2241 66.0709C51.8317 70.472 46.4827 72.6726 40.1771 72.6726ZM63.9388 72.0895V65.8088C67.6566 65.0022 70.6673 63.084 72.9708 60.0543C75.2744 57.0246 76.4262 53.5961 76.4262 49.7687C76.4262 45.9414 75.2688 42.5257 72.9541 39.5218C70.6394 36.5177 67.6343 34.5979 63.9388 33.7622V27.5251C69.3256 28.4635 73.7713 31.0343 77.2759 35.2373C80.7804 39.4403 82.5326 44.2841 82.5326 49.7687C82.5326 55.2534 80.7804 60.0972 77.2759 64.3002C73.7713 68.5032 69.3256 71.0997 63.9388 72.0895Z" fill="#6366F1"/>
</g>
<path d="M128.49 40.36C127.274 40.36 126.175 40.5733 125.194 41C124.212 41.4053 123.38 42.0133 122.698 42.824C122.015 43.6133 121.492 44.584 121.13 45.736C120.767 46.8667 120.586 48.1467 120.586 49.576C120.586 51.4533 120.874 53.0853 121.45 54.472C122.047 55.8587 122.922 56.9253 124.074 57.672C125.247 58.4187 126.708 58.792 128.458 58.792C129.46 58.792 130.41 58.7067 131.306 58.536C132.202 58.3653 133.076 58.152 133.93 57.896V60.392C133.076 60.712 132.191 60.9467 131.274 61.096C130.378 61.2453 129.3 61.32 128.042 61.32C125.716 61.32 123.775 60.84 122.218 59.88C120.66 58.92 119.487 57.5547 118.698 55.784C117.93 54.0133 117.546 51.9333 117.546 49.544C117.546 47.816 117.78 46.2373 118.25 44.808C118.74 43.3787 119.444 42.1413 120.362 41.096C121.3 40.0507 122.452 39.2507 123.818 38.696C125.183 38.12 126.751 37.832 128.522 37.832C129.695 37.832 130.826 37.9493 131.914 38.184C133.002 38.4187 133.972 38.7493 134.826 39.176L133.674 41.608C132.97 41.288 132.18 41 131.306 40.744C130.452 40.488 129.514 40.36 128.49 40.36ZM141.349 43.816C141.349 44.2213 141.327 44.6373 141.285 45.064C141.263 45.4907 141.231 45.8747 141.189 46.216H141.381C141.743 45.6187 142.202 45.128 142.757 44.744C143.311 44.36 143.93 44.072 144.613 43.88C145.295 43.6667 145.999 43.56 146.725 43.56C148.111 43.56 149.263 43.784 150.181 44.232C151.119 44.6587 151.823 45.3307 152.293 46.248C152.762 47.1653 152.997 48.36 152.997 49.832V61H150.213V50.024C150.213 48.6373 149.903 47.6027 149.285 46.92C148.666 46.2373 147.695 45.896 146.373 45.896C145.093 45.896 144.09 46.1413 143.365 46.632C142.639 47.1013 142.117 47.8053 141.797 48.744C141.498 49.6613 141.349 50.792 141.349 52.136V61H138.533V36.68H141.349V43.816ZM164.81 43.56C166.9 43.56 168.447 44.0187 169.45 44.936C170.452 45.8533 170.954 47.3147 170.954 49.32V61H168.906L168.362 58.568H168.234C167.743 59.1867 167.231 59.7093 166.698 60.136C166.186 60.5413 165.588 60.84 164.906 61.032C164.244 61.224 163.434 61.32 162.474 61.32C161.45 61.32 160.522 61.1387 159.69 60.776C158.879 60.4133 158.239 59.8587 157.77 59.112C157.3 58.344 157.066 57.384 157.066 56.232C157.066 54.5253 157.738 53.2133 159.082 52.296C160.426 51.3573 162.495 50.8453 165.29 50.76L168.202 50.664V49.64C168.202 48.2107 167.892 47.2187 167.274 46.664C166.655 46.1093 165.78 45.832 164.65 45.832C163.754 45.832 162.9 45.9707 162.09 46.248C161.279 46.504 160.522 46.8027 159.818 47.144L158.954 45.032C159.7 44.6267 160.586 44.2853 161.61 44.008C162.634 43.7093 163.7 43.56 164.81 43.56ZM165.642 52.712C163.508 52.7973 162.026 53.1387 161.194 53.736C160.383 54.3333 159.978 55.176 159.978 56.264C159.978 57.224 160.266 57.928 160.842 58.376C161.439 58.824 162.196 59.048 163.114 59.048C164.564 59.048 165.77 58.6533 166.73 57.864C167.69 57.0533 168.17 55.816 168.17 54.152V52.616L165.642 52.712ZM181.979 59.016C182.406 59.016 182.843 58.984 183.291 58.92C183.739 58.8347 184.102 58.7493 184.379 58.664V60.808C184.081 60.9573 183.654 61.0747 183.099 61.16C182.545 61.2667 182.011 61.32 181.499 61.32C180.603 61.32 179.771 61.1707 179.003 60.872C178.257 60.552 177.649 60.008 177.179 59.24C176.71 58.472 176.475 57.3947 176.475 56.008V46.024H174.043V44.68L176.507 43.56L177.627 39.912H179.291V43.848H184.251V46.024H179.291V55.944C179.291 56.9893 179.537 57.768 180.027 58.28C180.539 58.7707 181.19 59.016 181.979 59.016ZM185.126 43.848H188.134L191.846 53.608C192.059 54.184 192.251 54.7387 192.422 55.272C192.614 55.8053 192.784 56.328 192.934 56.84C193.083 57.3307 193.2 57.8107 193.286 58.28H193.414C193.542 57.7467 193.744 57.0533 194.022 56.2C194.299 55.3253 194.587 54.4507 194.886 53.576L198.374 43.848H201.414L194.022 63.368C193.616 64.4347 193.136 65.3627 192.582 66.152C192.048 66.9627 191.387 67.5813 190.598 68.008C189.83 68.456 188.891 68.68 187.782 68.68C187.27 68.68 186.822 68.648 186.438 68.584C186.054 68.5413 185.723 68.488 185.446 68.424V66.184C185.68 66.2267 185.958 66.2693 186.278 66.312C186.619 66.3547 186.971 66.376 187.334 66.376C187.995 66.376 188.56 66.248 189.03 65.992C189.52 65.7573 189.936 65.4053 190.278 64.936C190.619 64.488 190.907 63.9547 191.142 63.336L192.038 61.064L185.126 43.848Z" fill="black"/>
<rect x="100" y="18" width="1" height="64" rx="0.5" fill="#6366F1"/>
</svg>
