<svg width="100" height="100" viewBox="0 0 100 100" fill="none" xmlns="http://www.w3.org/2000/svg">
<rect width="100" height="100" rx="10" fill="white"/>
<mask id="mask0_5_101" style="mask-type:alpha" maskUnits="userSpaceOnUse" x="13" y="13" width="74" height="74">
<rect x="13" y="13" width="74" height="74" fill="#D9D9D9"/>
</mask>
<g mask="url(#mask0_5_101)">
<path d="M40.1771 72.6726C33.8594 72.6726 28.495 70.4742 24.084 66.0773C19.6729 61.6803 17.4674 56.3258 17.4674 50.0137C17.4674 43.7016 19.6688 38.3353 24.0717 33.9147C28.4746 29.4941 33.8363 27.2838 40.157 27.2838C46.4777 27.2838 51.8338 29.492 56.2253 33.9083C60.6169 38.3246 62.8126 43.6888 62.8126 50.001C62.8126 56.3131 60.6165 61.6697 56.2241 66.0709C51.8317 70.472 46.4827 72.6726 40.1771 72.6726ZM63.9388 72.0895V65.8088C67.6566 65.0022 70.6673 63.084 72.9708 60.0543C75.2744 57.0246 76.4262 53.5961 76.4262 49.7687C76.4262 45.9414 75.2688 42.5257 72.9541 39.5217C70.6394 36.5177 67.6343 34.5979 63.9388 33.7622V27.5251C69.3256 28.4635 73.7713 31.0343 77.2759 35.2373C80.7804 39.4403 82.5326 44.2841 82.5326 49.7687C82.5326 55.2534 80.7804 60.0972 77.2759 64.3002C73.7713 68.5032 69.3256 71.0997 63.9388 72.0895Z" fill="#6366F1"/>
</g>
</svg>
