<svg width="146" height="100" viewBox="0 0 146 100" fill="none" xmlns="http://www.w3.org/2000/svg">
<rect width="146" height="100" rx="10" fill="white"/>
<path d="M24.4898 26.36C23.2738 26.36 22.1751 26.5733 21.1938 27C20.2124 27.4053 19.3804 28.0133 18.6978 28.824C18.0151 29.6133 17.4924 30.584 17.1298 31.736C16.7671 32.8667 16.5858 34.1467 16.5858 35.576C16.5858 37.4533 16.8738 39.0853 17.4498 40.472C18.0471 41.8587 18.9218 42.9253 20.0738 43.672C21.2471 44.4187 22.7084 44.792 24.4578 44.792C25.4604 44.792 26.4098 44.7067 27.3058 44.536C28.2018 44.3653 29.0764 44.152 29.9298 43.896V46.392C29.0764 46.712 28.1911 46.9467 27.2738 47.096C26.3778 47.2453 25.3004 47.32 24.0418 47.32C21.7164 47.32 19.7751 46.84 18.2178 45.88C16.6604 44.92 15.4871 43.5547 14.6978 41.784C13.9298 40.0133 13.5458 37.9333 13.5458 35.544C13.5458 33.816 13.7804 32.2373 14.2498 30.808C14.7404 29.3787 15.4444 28.1413 16.3618 27.096C17.3004 26.0507 18.4524 25.2507 19.8177 24.696C21.1831 24.12 22.7511 23.832 24.5218 23.832C25.6951 23.832 26.8258 23.9493 27.9138 24.184C29.0018 24.4187 29.9724 24.7493 30.8258 25.176L29.6737 27.608C28.9698 27.288 28.1804 27 27.3058 26.744C26.4524 26.488 25.5138 26.36 24.4898 26.36ZM37.3485 29.816C37.3485 30.2213 37.3272 30.6373 37.2845 31.064C37.2632 31.4907 37.2312 31.8747 37.1885 32.216H37.3805C37.7432 31.6187 38.2018 31.128 38.7565 30.744C39.3112 30.36 39.9298 30.072 40.6125 29.88C41.2952 29.6667 41.9992 29.56 42.7245 29.56C44.1112 29.56 45.2632 29.784 46.1805 30.232C47.1192 30.6587 47.8232 31.3307 48.2925 32.248C48.7618 33.1653 48.9965 34.36 48.9965 35.832V47H46.2125V36.024C46.2125 34.6373 45.9032 33.6027 45.2845 32.92C44.6658 32.2373 43.6952 31.896 42.3725 31.896C41.0925 31.896 40.0898 32.1413 39.3645 32.632C38.6392 33.1013 38.1165 33.8053 37.7965 34.744C37.4978 35.6613 37.3485 36.792 37.3485 38.136V47H34.5325V22.68H37.3485V29.816ZM60.8098 29.56C62.9004 29.56 64.4471 30.0187 65.4498 30.936C66.4524 31.8533 66.9538 33.3147 66.9538 35.32V47H64.9058L64.3618 44.568H64.2338C63.7431 45.1867 63.2311 45.7093 62.6978 46.136C62.1858 46.5413 61.5884 46.84 60.9058 47.032C60.2444 47.224 59.4338 47.32 58.4738 47.32C57.4498 47.32 56.5218 47.1387 55.6898 46.776C54.8791 46.4133 54.2391 45.8587 53.7698 45.112C53.3004 44.344 53.0658 43.384 53.0658 42.232C53.0658 40.5253 53.7378 39.2133 55.0818 38.296C56.4258 37.3573 58.4951 36.8453 61.2898 36.76L64.2018 36.664V35.64C64.2018 34.2107 63.8924 33.2187 63.2738 32.664C62.6551 32.1093 61.7804 31.832 60.6498 31.832C59.7538 31.832 58.9004 31.9707 58.0898 32.248C57.2791 32.504 56.5218 32.8027 55.8177 33.144L54.9538 31.032C55.7004 30.6267 56.5858 30.2853 57.6098 30.008C58.6338 29.7093 59.7004 29.56 60.8098 29.56ZM61.6418 38.712C59.5084 38.7973 58.0258 39.1387 57.1938 39.736C56.3831 40.3333 55.9778 41.176 55.9778 42.264C55.9778 43.224 56.2658 43.928 56.8418 44.376C57.4391 44.824 58.1964 45.048 59.1138 45.048C60.5644 45.048 61.7698 44.6533 62.7298 43.864C63.6898 43.0533 64.1698 41.816 64.1698 40.152V38.616L61.6418 38.712ZM77.9792 45.016C78.4059 45.016 78.8433 44.984 79.2913 44.92C79.7393 44.8347 80.1019 44.7493 80.3793 44.664V46.808C80.0806 46.9573 79.6539 47.0747 79.0993 47.16C78.5446 47.2667 78.0113 47.32 77.4993 47.32C76.6033 47.32 75.7713 47.1707 75.0033 46.872C74.2566 46.552 73.6486 46.008 73.1793 45.24C72.7099 44.472 72.4753 43.3947 72.4753 42.008V32.024H70.0433V30.68L72.5073 29.56L73.6273 25.912H75.2913V29.848H80.2513V32.024H75.2913V41.944C75.2913 42.9893 75.5366 43.768 76.0273 44.28C76.5393 44.7707 77.1899 45.016 77.9792 45.016ZM81.1258 29.848H84.1338L87.8458 39.608C88.0591 40.184 88.2511 40.7387 88.4218 41.272C88.6138 41.8053 88.7844 42.328 88.9338 42.84C89.0831 43.3307 89.2004 43.8107 89.2858 44.28H89.4138C89.5418 43.7467 89.7444 43.0533 90.0218 42.2C90.2991 41.3253 90.5871 40.4507 90.8858 39.576L94.3738 29.848H97.4138L90.0218 49.368C89.6164 50.4347 89.1364 51.3627 88.5818 52.152C88.0484 52.9627 87.3871 53.5813 86.5978 54.008C85.8298 54.456 84.8911 54.68 83.7818 54.68C83.2698 54.68 82.8218 54.648 82.4378 54.584C82.0538 54.5413 81.7231 54.488 81.4458 54.424V52.184C81.6804 52.2267 81.9578 52.2693 82.2778 52.312C82.6191 52.3547 82.9711 52.376 83.3338 52.376C83.9951 52.376 84.5604 52.248 85.0298 51.992C85.5204 51.7573 85.9364 51.4053 86.2778 50.936C86.6191 50.488 86.9071 49.9547 87.1418 49.336L88.0378 47.064L81.1258 29.848Z" fill="#6366F1"/>
<path d="M16.9199 75H16.1999V69.92H14.4159V69.288H18.6959V69.92H16.9199V75ZM20.1653 70.704C20.1653 70.8053 20.1599 70.9093 20.1493 71.016C20.1439 71.1227 20.1359 71.2187 20.1253 71.304H20.1733C20.2639 71.1547 20.3786 71.032 20.5173 70.936C20.6559 70.84 20.8106 70.768 20.9813 70.72C21.1519 70.6667 21.3279 70.64 21.5093 70.64C21.8559 70.64 22.1439 70.696 22.3733 70.808C22.6079 70.9147 22.7839 71.0827 22.9013 71.312C23.0186 71.5413 23.0773 71.84 23.0773 72.208V75H22.3813V72.256C22.3813 71.9093 22.3039 71.6507 22.1493 71.48C21.9946 71.3093 21.7519 71.224 21.4213 71.224C21.1013 71.224 20.8506 71.2853 20.6693 71.408C20.4879 71.5253 20.3573 71.7013 20.2773 71.936C20.2026 72.1653 20.1653 72.448 20.1653 72.784V75H19.4613V68.92H20.1653V70.704ZM26.0626 70.632C26.4306 70.632 26.7452 70.712 27.0066 70.872C27.2732 71.032 27.4759 71.2587 27.6146 71.552C27.7586 71.84 27.8306 72.1787 27.8306 72.568V72.992H24.8946C24.9052 73.4773 25.0279 73.848 25.2626 74.104C25.5026 74.3547 25.8359 74.48 26.2626 74.48C26.5346 74.48 26.7746 74.456 26.9826 74.408C27.1959 74.3547 27.4146 74.28 27.6386 74.184V74.8C27.4199 74.896 27.2039 74.9653 26.9906 75.008C26.7772 75.056 26.5239 75.08 26.2306 75.08C25.8252 75.08 25.4652 74.9973 25.1506 74.832C24.8412 74.6667 24.5986 74.4213 24.4226 74.096C24.2519 73.7653 24.1666 73.3627 24.1666 72.888C24.1666 72.4187 24.2439 72.016 24.3986 71.68C24.5586 71.344 24.7799 71.0853 25.0626 70.904C25.3506 70.7227 25.6839 70.632 26.0626 70.632ZM26.0546 71.208C25.7186 71.208 25.4519 71.3173 25.2546 71.536C25.0626 71.7493 24.9479 72.048 24.9106 72.432H27.0946C27.0946 72.1867 27.0572 71.9733 26.9826 71.792C26.9079 71.6107 26.7932 71.4693 26.6386 71.368C26.4892 71.2613 26.2946 71.208 26.0546 71.208ZM34.5843 70.712V75H34.0083L33.9043 74.432H33.8723C33.7816 74.5813 33.6643 74.704 33.5203 74.8C33.3763 74.896 33.219 74.9653 33.0483 75.008C32.8776 75.056 32.699 75.08 32.5123 75.08C32.171 75.08 31.883 75.0267 31.6483 74.92C31.419 74.808 31.2456 74.6373 31.1283 74.408C31.011 74.1787 30.9523 73.8827 30.9523 73.52V70.712H31.6643V73.472C31.6643 73.8133 31.7416 74.0693 31.8963 74.24C32.051 74.4107 32.291 74.496 32.6163 74.496C32.9363 74.496 33.187 74.4373 33.3683 74.32C33.555 74.1973 33.6856 74.0213 33.7603 73.792C33.8403 73.5573 33.8803 73.2747 33.8803 72.944V70.712H34.5843ZM36.6496 75H35.9456V68.92H36.6496V75ZM39.4401 74.504C39.5468 74.504 39.6561 74.496 39.7681 74.48C39.8801 74.4587 39.9708 74.4373 40.0401 74.416V74.952C39.9655 74.9893 39.8588 75.0187 39.7201 75.04C39.5815 75.0667 39.4481 75.08 39.3201 75.08C39.0961 75.08 38.8881 75.0427 38.6961 74.968C38.5095 74.888 38.3575 74.752 38.2401 74.56C38.1228 74.368 38.0641 74.0987 38.0641 73.752V71.256H37.4561V70.92L38.0721 70.64L38.3521 69.728H38.7681V70.712H40.0081V71.256H38.7681V73.736C38.7681 73.9973 38.8295 74.192 38.9521 74.32C39.0801 74.4427 39.2428 74.504 39.4401 74.504ZM41.6028 70.712V75H40.8988V70.712H41.6028ZM41.2588 69.104C41.3654 69.104 41.4588 69.1413 41.5388 69.216C41.6241 69.2853 41.6668 69.3973 41.6668 69.552C41.6668 69.7013 41.6241 69.8133 41.5388 69.888C41.4588 69.9627 41.3654 70 41.2588 70C41.1414 70 41.0428 69.9627 40.9628 69.888C40.8828 69.8133 40.8428 69.7013 40.8428 69.552C40.8428 69.3973 40.8828 69.2853 40.9628 69.216C41.0428 69.1413 41.1414 69.104 41.2588 69.104ZM47.6653 70.632C48.1506 70.632 48.5133 70.7573 48.7533 71.008C48.9933 71.2533 49.1133 71.6533 49.1133 72.208V75H48.4173V72.24C48.4173 71.904 48.3453 71.6507 48.2013 71.48C48.0626 71.3093 47.8439 71.224 47.5453 71.224C47.1293 71.224 46.8306 71.344 46.6493 71.584C46.4733 71.824 46.3853 72.1733 46.3853 72.632V75H45.6893V72.24C45.6893 72.016 45.6573 71.8293 45.5933 71.68C45.5293 71.5253 45.4333 71.4107 45.3053 71.336C45.1773 71.2613 45.0119 71.224 44.8093 71.224C44.5213 71.224 44.2946 71.2853 44.1293 71.408C43.9639 71.5253 43.8439 71.6987 43.7693 71.928C43.6999 72.1573 43.6653 72.44 43.6653 72.776V75H42.9613V70.712H43.5293L43.6333 71.296H43.6733C43.7639 71.1467 43.8733 71.024 44.0013 70.928C44.1346 70.8267 44.2813 70.752 44.4413 70.704C44.6013 70.656 44.7666 70.632 44.9373 70.632C45.2679 70.632 45.5426 70.6907 45.7613 70.808C45.9853 70.9253 46.1479 71.1067 46.2493 71.352H46.2893C46.4333 71.1067 46.6279 70.9253 46.8733 70.808C47.1239 70.6907 47.3879 70.632 47.6653 70.632ZM52.0618 70.64C52.5845 70.64 52.9711 70.7547 53.2218 70.984C53.4725 71.2133 53.5978 71.5787 53.5978 72.08V75H53.0858L52.9498 74.392H52.9178C52.7951 74.5467 52.6671 74.6773 52.5338 74.784C52.4058 74.8853 52.2565 74.96 52.0858 75.008C51.9205 75.056 51.7178 75.08 51.4778 75.08C51.2218 75.08 50.9898 75.0347 50.7818 74.944C50.5791 74.8533 50.4191 74.7147 50.3018 74.528C50.1845 74.336 50.1258 74.096 50.1258 73.808C50.1258 73.3813 50.2938 73.0533 50.6298 72.824C50.9658 72.5893 51.4831 72.4613 52.1818 72.44L52.9098 72.416V72.16C52.9098 71.8027 52.8325 71.5547 52.6778 71.416C52.5231 71.2773 52.3045 71.208 52.0218 71.208C51.7978 71.208 51.5845 71.2427 51.3818 71.312C51.1791 71.376 50.9898 71.4507 50.8138 71.536L50.5978 71.008C50.7845 70.9067 51.0058 70.8213 51.2618 70.752C51.5178 70.6773 51.7845 70.64 52.0618 70.64ZM52.2698 72.928C51.7365 72.9493 51.3658 73.0347 51.1578 73.184C50.9551 73.3333 50.8538 73.544 50.8538 73.816C50.8538 74.056 50.9258 74.232 51.0698 74.344C51.2191 74.456 51.4085 74.512 51.6378 74.512C52.0005 74.512 52.3018 74.4133 52.5418 74.216C52.7818 74.0133 52.9018 73.704 52.9018 73.288V72.904L52.2698 72.928ZM56.3542 74.504C56.4609 74.504 56.5702 74.496 56.6822 74.48C56.7942 74.4587 56.8849 74.4373 56.9542 74.416V74.952C56.8795 74.9893 56.7729 75.0187 56.6342 75.04C56.4955 75.0667 56.3622 75.08 56.2342 75.08C56.0102 75.08 55.8022 75.0427 55.6102 74.968C55.4235 74.888 55.2715 74.752 55.1542 74.56C55.0369 74.368 54.9782 74.0987 54.9782 73.752V71.256H54.3702V70.92L54.9862 70.64L55.2662 69.728H55.6822V70.712H56.9222V71.256H55.6822V73.736C55.6822 73.9973 55.7435 74.192 55.8662 74.32C55.9942 74.4427 56.1569 74.504 56.3542 74.504ZM59.4688 70.632C59.8368 70.632 60.1515 70.712 60.4128 70.872C60.6795 71.032 60.8821 71.2587 61.0208 71.552C61.1648 71.84 61.2368 72.1787 61.2368 72.568V72.992H58.3008C58.3115 73.4773 58.4341 73.848 58.6688 74.104C58.9088 74.3547 59.2421 74.48 59.6688 74.48C59.9408 74.48 60.1808 74.456 60.3888 74.408C60.6021 74.3547 60.8208 74.28 61.0448 74.184V74.8C60.8261 74.896 60.6101 74.9653 60.3968 75.008C60.1835 75.056 59.9301 75.08 59.6368 75.08C59.2315 75.08 58.8715 74.9973 58.5568 74.832C58.2475 74.6667 58.0048 74.4213 57.8288 74.096C57.6581 73.7653 57.5728 73.3627 57.5728 72.888C57.5728 72.4187 57.6501 72.016 57.8048 71.68C57.9648 71.344 58.1861 71.0853 58.4688 70.904C58.7568 70.7227 59.0901 70.632 59.4688 70.632ZM59.4608 71.208C59.1248 71.208 58.8581 71.3173 58.6608 71.536C58.4688 71.7493 58.3541 72.048 58.3168 72.432H60.5008C60.5008 72.1867 60.4635 71.9733 60.3888 71.792C60.3141 71.6107 60.1995 71.4693 60.0448 71.368C59.8955 71.2613 59.7008 71.208 59.4608 71.208ZM66.1266 75.08C65.7479 75.08 65.4092 75.0027 65.1106 74.848C64.8172 74.6933 64.5852 74.4533 64.4146 74.128C64.2492 73.8027 64.1666 73.3867 64.1666 72.88C64.1666 72.352 64.2546 71.9227 64.4306 71.592C64.6066 71.2613 64.8439 71.0187 65.1426 70.864C65.4466 70.7093 65.7906 70.632 66.1746 70.632C66.3932 70.632 66.6039 70.656 66.8066 70.704C67.0092 70.7467 67.1746 70.8 67.3026 70.864L67.0866 71.448C66.9586 71.4 66.8092 71.3547 66.6386 71.312C66.4679 71.2693 66.3079 71.248 66.1586 71.248C65.8706 71.248 65.6332 71.3093 65.4466 71.432C65.2599 71.5547 65.1212 71.736 65.0306 71.976C64.9399 72.216 64.8946 72.5147 64.8946 72.872C64.8946 73.2133 64.9399 73.504 65.0306 73.744C65.1212 73.984 65.2572 74.1653 65.4386 74.288C65.6199 74.4107 65.8466 74.472 66.1186 74.472C66.3532 74.472 66.5586 74.448 66.7346 74.4C66.9159 74.352 67.0812 74.2933 67.2306 74.224V74.848C67.0866 74.9227 66.9266 74.9787 66.7506 75.016C66.5799 75.0587 66.3719 75.08 66.1266 75.08ZM68.9543 70.704C68.9543 70.8053 68.949 70.9093 68.9383 71.016C68.933 71.1227 68.925 71.2187 68.9143 71.304H68.9623C69.053 71.1547 69.1676 71.032 69.3063 70.936C69.445 70.84 69.5996 70.768 69.7703 70.72C69.941 70.6667 70.117 70.64 70.2983 70.64C70.645 70.64 70.933 70.696 71.1623 70.808C71.397 70.9147 71.573 71.0827 71.6903 71.312C71.8076 71.5413 71.8663 71.84 71.8663 72.208V75H71.1703V72.256C71.1703 71.9093 71.093 71.6507 70.9383 71.48C70.7836 71.3093 70.541 71.224 70.2103 71.224C69.8903 71.224 69.6396 71.2853 69.4583 71.408C69.277 71.5253 69.1463 71.7013 69.0663 71.936C68.9916 72.1653 68.9543 72.448 68.9543 72.784V75H68.2503V68.92H68.9543V70.704ZM74.8196 70.64C75.3423 70.64 75.729 70.7547 75.9796 70.984C76.2303 71.2133 76.3556 71.5787 76.3556 72.08V75H75.8436L75.7076 74.392H75.6756C75.553 74.5467 75.425 74.6773 75.2916 74.784C75.1636 74.8853 75.0143 74.96 74.8436 75.008C74.6783 75.056 74.4756 75.08 74.2356 75.08C73.9796 75.08 73.7476 75.0347 73.5396 74.944C73.337 74.8533 73.177 74.7147 73.0596 74.528C72.9423 74.336 72.8836 74.096 72.8836 73.808C72.8836 73.3813 73.0516 73.0533 73.3876 72.824C73.7236 72.5893 74.241 72.4613 74.9396 72.44L75.6676 72.416V72.16C75.6676 71.8027 75.5903 71.5547 75.4356 71.416C75.281 71.2773 75.0623 71.208 74.7796 71.208C74.5556 71.208 74.3423 71.2427 74.1396 71.312C73.937 71.376 73.7476 71.4507 73.5716 71.536L73.3556 71.008C73.5423 70.9067 73.7636 70.8213 74.0196 70.752C74.2756 70.6773 74.5423 70.64 74.8196 70.64ZM75.0276 72.928C74.4943 72.9493 74.1236 73.0347 73.9156 73.184C73.713 73.3333 73.6116 73.544 73.6116 73.816C73.6116 74.056 73.6836 74.232 73.8276 74.344C73.977 74.456 74.1663 74.512 74.3956 74.512C74.7583 74.512 75.0596 74.4133 75.2996 74.216C75.5396 74.0133 75.6596 73.704 75.6596 73.288V72.904L75.0276 72.928ZM79.112 74.504C79.2187 74.504 79.328 74.496 79.44 74.48C79.552 74.4587 79.6427 74.4373 79.712 74.416V74.952C79.6373 74.9893 79.5307 75.0187 79.392 75.04C79.2533 75.0667 79.12 75.08 78.992 75.08C78.768 75.08 78.56 75.0427 78.368 74.968C78.1813 74.888 78.0293 74.752 77.912 74.56C77.7947 74.368 77.736 74.0987 77.736 73.752V71.256H77.128V70.92L77.744 70.64L78.024 69.728H78.44V70.712H79.68V71.256H78.44V73.736C78.44 73.9973 78.5013 74.192 78.624 74.32C78.752 74.4427 78.9147 74.504 79.112 74.504ZM82.0026 74.504C82.1093 74.504 82.2186 74.496 82.3306 74.48C82.4426 74.4587 82.5333 74.4373 82.6026 74.416V74.952C82.528 74.9893 82.4213 75.0187 82.2826 75.04C82.144 75.0667 82.0106 75.08 81.8826 75.08C81.6586 75.08 81.4506 75.0427 81.2586 74.968C81.072 74.888 80.92 74.752 80.8026 74.56C80.6853 74.368 80.6266 74.0987 80.6266 73.752V71.256H80.0186V70.92L80.6346 70.64L80.9146 69.728H81.3306V70.712H82.5706V71.256H81.3306V73.736C81.3306 73.9973 81.392 74.192 81.5146 74.32C81.6426 74.4427 81.8053 74.504 82.0026 74.504ZM84.1653 70.712V75H83.4613V70.712H84.1653ZM83.8213 69.104C83.9279 69.104 84.0213 69.1413 84.1013 69.216C84.1866 69.2853 84.2293 69.3973 84.2293 69.552C84.2293 69.7013 84.1866 69.8133 84.1013 69.888C84.0213 69.9627 83.9279 70 83.8213 70C83.7039 70 83.6053 69.9627 83.5253 69.888C83.4453 69.8133 83.4053 69.7013 83.4053 69.552C83.4053 69.3973 83.4453 69.2853 83.5253 69.216C83.6053 69.1413 83.7039 69.104 83.8213 69.104ZM87.5878 70.632C88.0998 70.632 88.4864 70.7573 88.7478 71.008C89.0091 71.2533 89.1398 71.6533 89.1398 72.208V75H88.4438V72.256C88.4438 71.9093 88.3664 71.6507 88.2118 71.48C88.0571 71.3093 87.8144 71.224 87.4838 71.224C87.0091 71.224 86.6811 71.3573 86.4998 71.624C86.3184 71.8907 86.2278 72.2747 86.2278 72.776V75H85.5238V70.712H86.0918L86.1958 71.296H86.2358C86.3318 71.1467 86.4491 71.024 86.5878 70.928C86.7318 70.8267 86.8891 70.752 87.0598 70.704C87.2304 70.656 87.4064 70.632 87.5878 70.632ZM91.9891 70.632C92.2717 70.632 92.5251 70.6853 92.7491 70.792C92.9784 70.8987 93.1731 71.0613 93.3331 71.28H93.3731L93.4691 70.712H94.0291V75.072C94.0291 75.4773 93.9597 75.816 93.8211 76.088C93.6824 76.3653 93.4717 76.5733 93.1891 76.712C92.9064 76.8507 92.5464 76.92 92.1091 76.92C91.7997 76.92 91.5144 76.896 91.2531 76.848C90.9971 76.8053 90.7677 76.7387 90.5651 76.648V76C90.7037 76.0693 90.8557 76.128 91.0211 76.176C91.1864 76.2293 91.3651 76.2693 91.5571 76.296C91.7491 76.3227 91.9464 76.336 92.1491 76.336C92.5171 76.336 92.8051 76.2267 93.0131 76.008C93.2264 75.7947 93.3331 75.5013 93.3331 75.128V74.96C93.3331 74.896 93.3357 74.8053 93.3411 74.688C93.3464 74.5653 93.3517 74.48 93.3571 74.432H93.3251C93.1757 74.6507 92.9891 74.8133 92.7651 74.92C92.5464 75.0267 92.2904 75.08 91.9971 75.08C91.4424 75.08 91.0077 74.8853 90.6931 74.496C90.3837 74.1067 90.2291 73.5627 90.2291 72.864C90.2291 72.4053 90.2984 72.0107 90.4371 71.68C90.5811 71.344 90.7837 71.0853 91.0451 70.904C91.3064 70.7227 91.6211 70.632 91.9891 70.632ZM92.0851 71.224C91.8451 71.224 91.6397 71.288 91.4691 71.416C91.3037 71.544 91.1757 71.7307 91.0851 71.976C90.9997 72.2213 90.9571 72.52 90.9571 72.872C90.9571 73.4 91.0531 73.8053 91.2451 74.088C91.4424 74.3653 91.7277 74.504 92.1011 74.504C92.3197 74.504 92.5064 74.4773 92.6611 74.424C92.8157 74.3653 92.9437 74.2773 93.0451 74.16C93.1464 74.0373 93.2211 73.8827 93.2691 73.696C93.3171 73.5093 93.3411 73.288 93.3411 73.032V72.864C93.3411 72.4747 93.2957 72.16 93.2051 71.92C93.1197 71.68 92.9837 71.504 92.7971 71.392C92.6104 71.28 92.3731 71.224 92.0851 71.224ZM99.5091 70.632C100.037 70.632 100.461 70.816 100.781 71.184C101.106 71.552 101.269 72.1067 101.269 72.848C101.269 73.3333 101.194 73.744 101.045 74.08C100.901 74.4107 100.696 74.6613 100.429 74.832C100.168 74.9973 99.8584 75.08 99.5011 75.08C99.2824 75.08 99.0877 75.0507 98.9171 74.992C98.7464 74.9333 98.5997 74.8587 98.4771 74.768C98.3597 74.672 98.2584 74.568 98.1731 74.456H98.1251C98.1357 74.5467 98.1464 74.6613 98.1571 74.8C98.1677 74.9387 98.1731 75.0587 98.1731 75.16V76.92H97.4691V70.712H98.0451L98.1411 71.296H98.1731C98.2584 71.1733 98.3597 71.0613 98.4771 70.96C98.5997 70.8587 98.7437 70.7787 98.9091 70.72C99.0797 70.6613 99.2797 70.632 99.5091 70.632ZM99.3811 71.224C99.0931 71.224 98.8611 71.28 98.6851 71.392C98.5091 71.4987 98.3811 71.6613 98.3011 71.88C98.2211 72.0987 98.1784 72.376 98.1731 72.712V72.848C98.1731 73.2 98.2104 73.4987 98.2851 73.744C98.3597 73.9893 98.4851 74.176 98.6611 74.304C98.8424 74.432 99.0877 74.496 99.3971 74.496C99.6584 74.496 99.8717 74.424 100.037 74.28C100.208 74.136 100.333 73.9413 100.413 73.696C100.498 73.4453 100.541 73.16 100.541 72.84C100.541 72.3493 100.445 71.9573 100.253 71.664C100.066 71.3707 99.7757 71.224 99.3811 71.224ZM103.095 75H102.391V68.92H103.095V75ZM106.077 70.64C106.6 70.64 106.987 70.7547 107.237 70.984C107.488 71.2133 107.613 71.5787 107.613 72.08V75H107.101L106.965 74.392H106.933C106.811 74.5467 106.683 74.6773 106.549 74.784C106.421 74.8853 106.272 74.96 106.101 75.008C105.936 75.056 105.733 75.08 105.493 75.08C105.237 75.08 105.005 75.0347 104.797 74.944C104.595 74.8533 104.435 74.7147 104.317 74.528C104.2 74.336 104.141 74.096 104.141 73.808C104.141 73.3813 104.309 73.0533 104.645 72.824C104.981 72.5893 105.499 72.4613 106.197 72.44L106.925 72.416V72.16C106.925 71.8027 106.848 71.5547 106.693 71.416C106.539 71.2773 106.32 71.208 106.037 71.208C105.813 71.208 105.6 71.2427 105.397 71.312C105.195 71.376 105.005 71.4507 104.829 71.536L104.613 71.008C104.8 70.9067 105.021 70.8213 105.277 70.752C105.533 70.6773 105.8 70.64 106.077 70.64ZM106.285 72.928C105.752 72.9493 105.381 73.0347 105.173 73.184C104.971 73.3333 104.869 73.544 104.869 73.816C104.869 74.056 104.941 74.232 105.085 74.344C105.235 74.456 105.424 74.512 105.653 74.512C106.016 74.512 106.317 74.4133 106.557 74.216C106.797 74.0133 106.917 73.704 106.917 73.288V72.904L106.285 72.928ZM110.37 74.504C110.476 74.504 110.586 74.496 110.698 74.48C110.81 74.4587 110.9 74.4373 110.97 74.416V74.952C110.895 74.9893 110.788 75.0187 110.65 75.04C110.511 75.0667 110.378 75.08 110.25 75.08C110.026 75.08 109.818 75.0427 109.626 74.968C109.439 74.888 109.287 74.752 109.17 74.56C109.052 74.368 108.994 74.0987 108.994 73.752V71.256H108.386V70.92L109.002 70.64L109.282 69.728H109.698V70.712H110.938V71.256H109.698V73.736C109.698 73.9973 109.759 74.192 109.882 74.32C110.01 74.4427 110.172 74.504 110.37 74.504ZM113.804 71.256H112.724V75H112.02V71.256H111.268V70.928L112.02 70.688V70.44C112.02 70.072 112.074 69.7733 112.18 69.544C112.292 69.3147 112.452 69.1467 112.66 69.04C112.868 68.9333 113.119 68.88 113.412 68.88C113.583 68.88 113.738 68.896 113.876 68.928C114.02 68.9547 114.143 68.9867 114.244 69.024L114.06 69.576C113.975 69.5493 113.876 69.5227 113.764 69.496C113.652 69.4693 113.538 69.456 113.42 69.456C113.186 69.456 113.01 69.536 112.892 69.696C112.78 69.8507 112.724 70.096 112.724 70.432V70.712H113.804V71.256ZM118.306 72.848C118.306 73.2053 118.258 73.5227 118.162 73.8C118.072 74.072 117.938 74.304 117.762 74.496C117.592 74.688 117.381 74.8347 117.13 74.936C116.885 75.032 116.61 75.08 116.306 75.08C116.024 75.08 115.762 75.032 115.522 74.936C115.282 74.8347 115.074 74.688 114.898 74.496C114.722 74.304 114.584 74.072 114.482 73.8C114.386 73.5227 114.338 73.2053 114.338 72.848C114.338 72.3733 114.418 71.9733 114.578 71.648C114.738 71.3173 114.968 71.0667 115.266 70.896C115.565 70.72 115.92 70.632 116.33 70.632C116.72 70.632 117.061 70.72 117.354 70.896C117.653 71.0667 117.885 71.3173 118.05 71.648C118.221 71.9733 118.306 72.3733 118.306 72.848ZM115.066 72.848C115.066 73.184 115.109 73.4773 115.194 73.728C115.285 73.9733 115.424 74.1627 115.61 74.296C115.797 74.4293 116.034 74.496 116.322 74.496C116.61 74.496 116.848 74.4293 117.034 74.296C117.221 74.1627 117.357 73.9733 117.442 73.728C117.533 73.4773 117.578 73.184 117.578 72.848C117.578 72.5067 117.533 72.216 117.442 71.976C117.352 71.736 117.213 71.552 117.026 71.424C116.845 71.2907 116.608 71.224 116.314 71.224C115.877 71.224 115.56 71.368 115.362 71.656C115.165 71.944 115.066 72.3413 115.066 72.848ZM121.422 70.632C121.502 70.632 121.588 70.6373 121.678 70.648C121.774 70.6533 121.857 70.664 121.926 70.68L121.838 71.328C121.769 71.312 121.692 71.2987 121.606 71.288C121.526 71.2773 121.449 71.272 121.374 71.272C121.209 71.272 121.052 71.3067 120.902 71.376C120.753 71.4453 120.62 71.544 120.502 71.672C120.385 71.7947 120.292 71.944 120.222 72.12C120.158 72.296 120.126 72.4933 120.126 72.712V75H119.422V70.712H119.998L120.078 71.496H120.11C120.201 71.336 120.31 71.192 120.438 71.064C120.566 70.9307 120.713 70.8267 120.878 70.752C121.044 70.672 121.225 70.632 121.422 70.632ZM127.431 70.632C127.916 70.632 128.279 70.7573 128.519 71.008C128.759 71.2533 128.879 71.6533 128.879 72.208V75H128.183V72.24C128.183 71.904 128.111 71.6507 127.967 71.48C127.828 71.3093 127.61 71.224 127.311 71.224C126.895 71.224 126.596 71.344 126.415 71.584C126.239 71.824 126.151 72.1733 126.151 72.632V75H125.455V72.24C125.455 72.016 125.423 71.8293 125.359 71.68C125.295 71.5253 125.199 71.4107 125.071 71.336C124.943 71.2613 124.778 71.224 124.575 71.224C124.287 71.224 124.06 71.2853 123.895 71.408C123.73 71.5253 123.61 71.6987 123.535 71.928C123.466 72.1573 123.431 72.44 123.431 72.776V75H122.727V70.712H123.295L123.399 71.296H123.439C123.53 71.1467 123.639 71.024 123.767 70.928C123.9 70.8267 124.047 70.752 124.207 70.704C124.367 70.656 124.532 70.632 124.703 70.632C125.034 70.632 125.308 70.6907 125.527 70.808C125.751 70.9253 125.914 71.1067 126.015 71.352H126.055C126.199 71.1067 126.394 70.9253 126.639 70.808C126.89 70.6907 127.154 70.632 127.431 70.632ZM130.099 74.568C130.099 74.3707 130.147 74.232 130.243 74.152C130.339 74.072 130.454 74.032 130.587 74.032C130.726 74.032 130.843 74.072 130.939 74.152C131.041 74.232 131.091 74.3707 131.091 74.568C131.091 74.76 131.041 74.8987 130.939 74.984C130.843 75.0693 130.726 75.112 130.587 75.112C130.454 75.112 130.339 75.0693 130.243 74.984C130.147 74.8987 130.099 74.76 130.099 74.568Z" fill="black"/>
</svg>
